<?xml version="1.0" encoding="UTF-8" standalone="no"?>
<!-- Created with Inkscape (http://www.inkscape.org/) -->

<svg
   width="500"
   height="500"
   viewBox="0 0 500 500"
   version="1.1"
   id="svg5"
   inkscape:version="1.3.2 (091e20e, 2023-11-25, custom)"
   sodipodi:docname="icon.svg"
   inkscape:export-filename="icon.png"
   inkscape:export-xdpi="96"
   inkscape:export-ydpi="96"
   xml:space="preserve"
   xmlns:inkscape="http://www.inkscape.org/namespaces/inkscape"
   xmlns:sodipodi="http://sodipodi.sourceforge.net/DTD/sodipodi-0.dtd"
   xmlns="http://www.w3.org/2000/svg"
   xmlns:svg="http://www.w3.org/2000/svg"><sodipodi:namedview
     id="namedview7"
     pagecolor="#ffffff"
     bordercolor="#000000"
     borderopacity="0.25"
     inkscape:showpageshadow="2"
     inkscape:pageopacity="0.0"
     inkscape:pagecheckerboard="0"
     inkscape:deskcolor="#d1d1d1"
     inkscape:document-units="mm"
     showgrid="false"
     inkscape:zoom="0.63118804"
     inkscape:cx="-156.84708"
     inkscape:cy="533.12164"
     inkscape:window-width="3440"
     inkscape:window-height="1369"
     inkscape:window-x="-8"
     inkscape:window-y="487"
     inkscape:window-maximized="1"
     inkscape:current-layer="layer1" /><defs
     id="defs2" /><g
     inkscape:label="Layer 1"
     inkscape:groupmode="layer"
     id="layer1"
     transform="translate(95.158073,228.1412)"><rect
       style="fill:#ffbc52;fill-opacity:1;fill-rule:evenodd;stroke-width:1.64654;stroke-linejoin:round;paint-order:stroke fill markers"
       id="rect2550"
       width="500"
       height="500"
       x="-95.158073"
       y="-228.1412"
       rx="56.692913" /><circle
       style="fill:#ffbc52;fill-opacity:1;fill-rule:evenodd;stroke:none;stroke-width:0.246933;stroke-linejoin:round;paint-order:stroke fill markers"
       id="path526"
       cx="-65.28154"
       cy="-6.4447126"
       r="29.876534" /><g
       style="fill:#001426;fill-opacity:1"
       id="g1"
       transform="matrix(0.51789767,0,0,0.41057459,-93.748955,218.9346)"><path
         d="m 120,-120 v -80 l 80,-80 v 160 z m 160,0 v -240 l 80,-80 v 320 z m 160,0 v -320 l 80,81 v 239 z m 160,0 v -239 l 80,-80 v 319 z m 160,0 v -400 l 80,-80 v 480 z M 120,-327 v -113 l 280,-280 160,160 280,-280 v 113 L 560,-447 400,-607 Z"
         id="path1"
         style="fill:#001426;fill-opacity:1" /></g></g></svg>
