<?xml version="1.0" encoding="UTF-8" standalone="no"?>
<!-- Created with Inkscape (http://www.inkscape.org/) -->

<svg
   width="500"
   height="500"
   viewBox="0 0 500 500"
   version="1.1"
   id="svg5"
   inkscape:version="1.3.2 (091e20e, 2023-11-25, custom)"
   sodipodi:docname="icon.svg"
   inkscape:export-filename="icon.png"
   inkscape:export-xdpi="96"
   inkscape:export-ydpi="96"
   xml:space="preserve"
   xmlns:inkscape="http://www.inkscape.org/namespaces/inkscape"
   xmlns:sodipodi="http://sodipodi.sourceforge.net/DTD/sodipodi-0.dtd"
   xmlns="http://www.w3.org/2000/svg"
   xmlns:svg="http://www.w3.org/2000/svg"><sodipodi:namedview
     id="namedview7"
     pagecolor="#ffffff"
     bordercolor="#000000"
     borderopacity="0.25"
     inkscape:showpageshadow="2"
     inkscape:pageopacity="0.0"
     inkscape:pagecheckerboard="0"
     inkscape:deskcolor="#d1d1d1"
     inkscape:document-units="mm"
     showgrid="false"
     inkscape:zoom="0.89263468"
     inkscape:cx="108.66708"
     inkscape:cy="512.5277"
     inkscape:window-width="3440"
     inkscape:window-height="1369"
     inkscape:window-x="-8"
     inkscape:window-y="487"
     inkscape:window-maximized="1"
     inkscape:current-layer="layer1" /><defs
     id="defs2" /><g
     inkscape:label="Layer 1"
     inkscape:groupmode="layer"
     id="layer1"
     transform="translate(95.158073,228.1412)"><rect
       style="fill:#ffbc52;fill-opacity:1;fill-rule:evenodd;stroke-width:1.64654;stroke-linejoin:round;paint-order:stroke fill markers"
       id="rect2550"
       width="500"
       height="500"
       x="-95.158073"
       y="-228.1412"
       rx="56.692913" /><circle
       style="fill:#ffbc52;fill-opacity:1;fill-rule:evenodd;stroke:none;stroke-width:0.246933;stroke-linejoin:round;paint-order:stroke fill markers"
       id="path526"
       cx="-65.28154"
       cy="-6.4447126"
       r="29.876534" /><g
       style="fill:#001426;fill-opacity:1"
       id="g1"
       transform="matrix(0.49210356,0,0,0.49210356,-94.457434,273.07011)"><path
         d="M 352,-120 H 200 q -33,0 -56.5,-23.5 Q 120,-167 120,-200 v -152 q 48,0 84,-30.5 36,-30.5 36,-77.5 0,-47 -36,-77.5 -36,-30.5 -84,-30.5 v -152 q 0,-33 23.5,-56.5 Q 167,-800 200,-800 h 160 q 0,-42 29,-71 29,-29 71,-29 42,0 71,29 29,29 29,71 h 160 q 33,0 56.5,23.5 23.5,23.5 23.5,56.5 v 160 q 42,0 71,29 29,29 29,71 0,42 -29,71 -29,29 -71,29 v 160 q 0,33 -23.5,56.5 Q 753,-120 720,-120 H 568 q 0,-50 -31.5,-85 -31.5,-35 -76.5,-35 -45,0 -76.5,35 -31.5,35 -31.5,85 z m -152,-80 h 85 q 24,-66 77,-93 53,-27 98,-27 45,0 98,27 53,27 77,93 h 85 v -240 h 80 q 8,0 14,-6 6,-6 6,-14 0,-8 -6,-14 -6,-6 -14,-6 H 720 V -720 H 480 v -80 q 0,-8 -6,-14 -6,-6 -14,-6 -8,0 -14,6 -6,6 -6,14 v 80 H 200 v 88 q 54,20 87,67 33,47 33,105 0,57 -33,104 -33,47 -87,68 z m 260,-260 z"
         id="path1"
         style="fill:#001426;fill-opacity:1" /></g></g></svg>
