<?xml version="1.0" encoding="UTF-8" standalone="no"?>
<!-- Created with Inkscape (http://www.inkscape.org/) -->

<svg
   width="500"
   height="500"
   viewBox="0 0 500 500"
   version="1.1"
   id="svg5"
   inkscape:version="1.3.2 (091e20e, 2023-11-25, custom)"
   sodipodi:docname="service-level-calculator-icon.svg"
   inkscape:export-filename="icon.png"
   inkscape:export-xdpi="96"
   inkscape:export-ydpi="96"
   xmlns:inkscape="http://www.inkscape.org/namespaces/inkscape"
   xmlns:sodipodi="http://sodipodi.sourceforge.net/DTD/sodipodi-0.dtd"
   xmlns="http://www.w3.org/2000/svg"
   xmlns:svg="http://www.w3.org/2000/svg">
  <sodipodi:namedview
     id="namedview7"
     pagecolor="#ffffff"
     bordercolor="#000000"
     borderopacity="0.25"
     inkscape:showpageshadow="2"
     inkscape:pageopacity="0.0"
     inkscape:pagecheckerboard="0"
     inkscape:deskcolor="#d1d1d1"
     inkscape:document-units="mm"
     showgrid="false"
     inkscape:zoom="0.31559402"
     inkscape:cx="-1890.0865"
     inkscape:cy="-109.31766"
     inkscape:window-width="3440"
     inkscape:window-height="1369"
     inkscape:window-x="-8"
     inkscape:window-y="487"
     inkscape:window-maximized="1"
     inkscape:current-layer="layer1"
     showguides="true" />
  <defs
     id="defs2">
    <rect
       x="-1593.0369"
       y="-255.42364"
       width="732.66255"
       height="387.61658"
       id="rect1" />
  </defs>
  <g
     inkscape:label="Layer 1"
     inkscape:groupmode="layer"
     id="layer1"
     transform="translate(95.158073,228.1412)">
    <rect
       style="display:inline;fill:#ffbc52;fill-opacity:1;fill-rule:evenodd;stroke-width:1.64654;stroke-linejoin:round;paint-order:stroke fill markers"
       id="rect2550"
       width="500"
       height="500"
       x="-95.158073"
       y="-228.1412"
       rx="56.692913" />
    <path
       d="m 88.793177,31.612009 q -11.655672,0 -23.033827,-2.77516 Q 54.381194,25.784173 45.500682,21.621433 36.62017,17.181178 32.179915,12.740922 l 14.708347,-26.364019 q 3.052676,2.497643 9.435544,6.6603833 6.660384,3.8852239 15.263379,6.93789983 8.602996,3.05267587 17.205992,3.05267587 14.153313,0 23.588863,-6.6603838 9.71306,-6.6603842 9.71306,-19.4261192 0,-10.545608 -5.55032,-17.483508 -5.55032,-6.937899 -14.70835,-12.210703 -8.880513,-5.272804 -19.426121,-9.990576 -10.268092,-4.995288 -19.703635,-11.10064 -10.823124,-7.215415 -18.871088,-19.148603 -8.047964,-11.933189 -8.047964,-30.804279 0,-18.59357 8.32548,-30.52675 8.602996,-11.93319 22.478796,-17.76103 14.153315,-6.10535 30.804275,-6.10535 13.320767,0 22.756307,2.77516 9.43555,2.77516 15.81842,6.66038 6.38286,3.88523 9.99057,6.9379 l -14.70835,25.25396 q -4.71777,-4.99529 -14.15331,-9.15803 -9.43555,-4.44026 -21.091217,-4.44026 -13.598284,0 -21.646248,6.38287 -8.047963,6.10535 -8.047963,18.31606 0,10.82312 7.215415,18.59357 7.215416,7.492931 18.316056,13.875799 11.378157,6.105352 23.311347,12.48822 11.93318,6.382867 21.09121,14.985863 7.49293,6.660384 12.76574,16.65096 5.2728,9.990575 5.2728,22.478795 0,18.8710874 -8.88051,31.914339 -8.603,13.043252 -23.31134,19.703635 -14.70835,6.382868 -33.301923,6.382868 z m 98.795583,-2.77516 V -175.1374 h 31.35931 V 1.0852501 h 58.55587 V 28.836849 Z"
       id="text2"
       style="font-size:277.516px;font-family:Alata;-inkscape-font-specification:'Alata, Normal';fill:#001426;stroke-width:17.9135;paint-order:markers stroke fill"
       aria-label="SL" />
    <rect
       style="fill:#001426;fill-opacity:1;stroke:none;stroke-width:10;stroke-dasharray:none;stroke-opacity:1;paint-order:markers stroke fill"
       id="rect8"
       width="37.795277"
       height="37.795277"
       x="40.456551"
       y="62.141933"
       rx="7.5590553"
       ry="7.5590553" />
    <rect
       style="fill:#001426;fill-opacity:1;stroke:none;stroke-width:10;stroke-dasharray:none;stroke-opacity:1;paint-order:markers stroke fill"
       id="rect8-3"
       width="37.795277"
       height="37.795277"
       x="106.46053"
       y="62.141933"
       rx="7.5590553"
       ry="7.5590553" />
    <rect
       style="fill:#001426;fill-opacity:1;stroke:none;stroke-width:10;stroke-dasharray:none;stroke-opacity:1;paint-order:markers stroke fill"
       id="rect8-5"
       width="37.795277"
       height="37.795277"
       x="172.46449"
       y="62.141933"
       rx="7.5590553"
       ry="7.5590553" />
    <rect
       style="fill:#001426;fill-opacity:1;stroke:none;stroke-width:16.5518;stroke-dasharray:none;stroke-opacity:1;paint-order:markers stroke fill"
       id="rect8-5-4"
       width="37.795277"
       height="103.5443"
       x="238.25369"
       y="127.77752"
       rx="7.5590553"
       ry="7.5590553" />
    <rect
       style="fill:#001426;fill-opacity:1;stroke:none;stroke-width:10;stroke-dasharray:none;stroke-opacity:1;paint-order:markers stroke fill"
       id="rect8-8"
       width="37.795277"
       height="37.795277"
       x="40.276253"
       y="127.43131"
       rx="7.5590553"
       ry="7.5590553" />
    <rect
       style="fill:#001426;fill-opacity:1;stroke:none;stroke-width:10;stroke-dasharray:none;stroke-opacity:1;paint-order:markers stroke fill"
       id="rect8-3-7"
       width="37.795277"
       height="37.795277"
       x="106.2802"
       y="127.43131"
       rx="7.5590553"
       ry="7.5590553" />
    <rect
       style="fill:#001426;fill-opacity:1;stroke:none;stroke-width:10;stroke-dasharray:none;stroke-opacity:1;paint-order:markers stroke fill"
       id="rect8-5-6"
       width="37.795277"
       height="37.795277"
       x="172.28416"
       y="127.43131"
       rx="7.5590553"
       ry="7.5590553" />
    <rect
       style="fill:#001426;fill-opacity:1;stroke:none;stroke-width:10;stroke-dasharray:none;stroke-opacity:1;paint-order:markers stroke fill"
       id="rect8-1"
       width="37.795277"
       height="37.795277"
       x="40.485054"
       y="190.29485"
       rx="7.5590553"
       ry="7.5590553" />
    <rect
       style="fill:#001426;fill-opacity:1;stroke:none;stroke-width:10;stroke-dasharray:none;stroke-opacity:1;paint-order:markers stroke fill"
       id="rect8-3-5"
       width="37.795277"
       height="37.795277"
       x="106.48903"
       y="190.29485"
       rx="7.5590553"
       ry="7.5590553" />
    <rect
       style="fill:#001426;fill-opacity:1;stroke:none;stroke-width:10;stroke-dasharray:none;stroke-opacity:1;paint-order:markers stroke fill"
       id="rect8-5-5"
       width="37.795277"
       height="37.795277"
       x="172.493"
       y="190.29485"
       rx="7.5590553"
       ry="7.5590553" />
    <rect
       style="fill:#001426;fill-opacity:1;stroke:none;stroke-width:10;stroke-dasharray:none;stroke-opacity:1;paint-order:markers stroke fill"
       id="rect8-5-5-4"
       width="37.795277"
       height="37.795277"
       x="236.88634"
       y="60.956108"
       rx="7.5590553"
       ry="7.5590553" />
  </g>
</svg>
