<?xml version="1.0" encoding="UTF-8" standalone="no"?>
<!-- Created with Inkscape (http://www.inkscape.org/) -->

<svg
   width="500"
   height="500"
   viewBox="0 0 500 500"
   version="1.1"
   id="svg5"
   inkscape:version="1.3.2 (091e20e, 2023-11-25, custom)"
   sodipodi:docname="service-level-tools-icon.svg"
   inkscape:export-filename="icon.png"
   inkscape:export-xdpi="96"
   inkscape:export-ydpi="96"
   xmlns:inkscape="http://www.inkscape.org/namespaces/inkscape"
   xmlns:sodipodi="http://sodipodi.sourceforge.net/DTD/sodipodi-0.dtd"
   xmlns="http://www.w3.org/2000/svg"
   xmlns:svg="http://www.w3.org/2000/svg">
  <sodipodi:namedview
     id="namedview7"
     pagecolor="#ffffff"
     bordercolor="#000000"
     borderopacity="0.25"
     inkscape:showpageshadow="2"
     inkscape:pageopacity="0.0"
     inkscape:pagecheckerboard="0"
     inkscape:deskcolor="#d1d1d1"
     inkscape:document-units="mm"
     showgrid="false"
     inkscape:zoom="1.2623761"
     inkscape:cx="-9.1098049"
     inkscape:cy="361.61965"
     inkscape:window-width="3440"
     inkscape:window-height="1369"
     inkscape:window-x="-8"
     inkscape:window-y="487"
     inkscape:window-maximized="1"
     inkscape:current-layer="layer1"
     showguides="true" />
  <defs
     id="defs2">
    <rect
       x="-1593.0369"
       y="-255.42364"
       width="732.66255"
       height="387.61658"
       id="rect1" />
  </defs>
  <g
     inkscape:label="Layer 1"
     inkscape:groupmode="layer"
     id="layer1"
     transform="translate(95.158073,228.1412)">
    <rect
       style="display:inline;fill:#ffbc52;fill-opacity:1;fill-rule:evenodd;stroke-width:1.64654;stroke-linejoin:round;paint-order:stroke fill markers"
       id="rect2550"
       width="500"
       height="500"
       x="-95.158073"
       y="-228.1412"
       rx="56.692913" />
    <path
       d="m 88.793177,31.612009 q -11.655672,0 -23.033827,-2.77516 Q 54.381194,25.784173 45.500682,21.621433 36.62017,17.181178 32.179915,12.740922 l 14.708347,-26.364019 q 3.052676,2.497643 9.435544,6.6603833 6.660384,3.8852239 15.263379,6.93789983 8.602996,3.05267587 17.205992,3.05267587 14.153313,0 23.588863,-6.6603838 9.71306,-6.6603842 9.71306,-19.4261192 0,-10.545608 -5.55032,-17.483508 -5.55032,-6.937899 -14.70835,-12.210703 -8.880513,-5.272804 -19.426121,-9.990576 -10.268092,-4.995288 -19.703635,-11.10064 -10.823124,-7.215415 -18.871088,-19.148603 -8.047964,-11.933189 -8.047964,-30.804279 0,-18.59357 8.32548,-30.52675 8.602996,-11.93319 22.478796,-17.76103 14.153315,-6.10535 30.804275,-6.10535 13.320767,0 22.756307,2.77516 9.43555,2.77516 15.81842,6.66038 6.38286,3.88523 9.99057,6.9379 l -14.70835,25.25396 q -4.71777,-4.99529 -14.15331,-9.15803 -9.43555,-4.44026 -21.091217,-4.44026 -13.598284,0 -21.646248,6.38287 -8.047963,6.10535 -8.047963,18.31606 0,10.82312 7.215415,18.59357 7.215416,7.492931 18.316056,13.875799 11.378157,6.105352 23.311347,12.48822 11.93318,6.382867 21.09121,14.985863 7.49293,6.660384 12.76574,16.65096 5.2728,9.990575 5.2728,22.478795 0,18.8710874 -8.88051,31.914339 -8.603,13.043252 -23.31134,19.703635 -14.70835,6.382868 -33.301923,6.382868 z m 98.795583,-2.77516 V -175.1374 h 31.35931 V 1.0852501 h 58.55587 V 28.836849 Z"
       id="text2"
       style="font-size:277.516px;font-family:Alata;-inkscape-font-specification:'Alata, Normal';fill:#001426;stroke-width:17.9135;paint-order:markers stroke fill"
       aria-label="SL" />
    <path
       d="m 14.407051,200.77353 v -98.68404 h -29.12496 V 86.90733 H 61.03797 v 15.18216 h -29.4348 v 98.68404 z m 78.854188,1.5492 q -11.15424,0 -19.67484,-4.95744 -8.36568,-4.95744 -13.01328,-13.47804 -4.6476,-8.5206 -4.6476,-18.90024 0,-10.22472 4.49268,-18.5904 4.6476,-8.5206 13.01328,-13.47804 8.36568,-5.11236 19.82976,-5.11236 11.464081,0 19.829761,5.11236 8.36568,4.95744 12.85836,13.47804 4.49268,8.36568 4.49268,18.5904 0,10.37964 -4.6476,18.90024 -4.49268,8.5206 -12.85836,13.47804 -8.36568,4.95744 -19.674841,4.95744 z m 0.46476,-13.63296 q 9.295201,0 14.252641,-6.81648 5.11236,-6.81648 5.11236,-16.57644 0,-6.66156 -2.47872,-11.92884 -2.47872,-5.4222 -7.12632,-8.67552 -4.492681,-3.25332 -10.689481,-3.25332 -6.04188,0 -10.37964,3.25332 -4.33776,3.25332 -6.81648,8.67552 -2.3238,5.26728 -2.3238,11.92884 0,6.50664 2.63364,11.92884 2.63364,5.26728 7.12632,8.36568 4.6476,3.0984 10.68948,3.0984 z m 87.374791,13.63296 q -11.15424,0 -19.67484,-4.95744 -8.36568,-4.95744 -13.01328,-13.47804 -4.6476,-8.5206 -4.6476,-18.90024 0,-10.22472 4.49268,-18.5904 4.6476,-8.5206 13.01328,-13.47804 8.36568,-5.11236 19.82976,-5.11236 11.46408,0 19.82976,5.11236 8.36568,4.95744 12.85836,13.47804 4.49268,8.36568 4.49268,18.5904 0,10.37964 -4.6476,18.90024 -4.49268,8.5206 -12.85836,13.47804 -8.36568,4.95744 -19.67484,4.95744 z m 0.46476,-13.63296 q 9.2952,0 14.25264,-6.81648 5.11236,-6.81648 5.11236,-16.57644 0,-6.66156 -2.47872,-11.92884 -2.47872,-5.4222 -7.12632,-8.67552 -4.49268,-3.25332 -10.68948,-3.25332 -6.04188,0 -10.37964,3.25332 -4.33776,3.25332 -6.81648,8.67552 -2.3238,5.26728 -2.3238,11.92884 0,6.50664 2.63364,11.92884 2.63364,5.26728 7.12632,8.36568 4.6476,3.0984 10.68948,3.0984 z m 53.44731,12.08376 V 86.90733 h 16.57644 v 113.8662 z m 61.19346,1.5492 q -4.95744,0 -10.37964,-0.92952 -5.26728,-0.92952 -9.75996,-2.3238 -4.33776,-1.5492 -6.66156,-3.25332 l 5.57712,-13.1682 q 2.63364,1.85904 7.90092,4.18284 5.4222,2.3238 13.32312,2.3238 6.9714,0 9.45012,-2.01396 2.47872,-2.16888 2.47872,-4.95744 0,-2.94348 -2.16888,-4.49268 -2.01396,-1.70412 -5.88696,-3.0984 -3.873,-1.39428 -9.14028,-3.40824 -5.11236,-2.16888 -9.75996,-4.95744 -4.6476,-2.94348 -7.59108,-7.12632 -2.78856,-4.33776 -2.78856,-10.53456 0,-10.0698 7.746,-15.33708 7.746,-5.4222 20.44944,-5.4222 6.50664,0 12.54852,1.39428 6.1968,1.39428 9.2952,3.56316 l -6.04188,13.32312 q -1.85904,-1.85904 -6.1968,-3.40824 -4.18284,-1.5492 -10.0698,-1.5492 -10.99932,0 -10.99932,6.66156 0,3.25332 2.3238,5.26728 2.47872,1.85904 6.35172,3.25332 4.02792,1.23936 8.67552,3.0984 9.45012,3.71808 14.40756,8.67552 5.11236,4.80252 5.11236,12.85836 0,7.28124 -3.873,12.08376 -3.873,4.80252 -10.37964,7.12632 -6.35172,2.16888 -13.9428,2.16888 z"
       id="text4"
       style="font-size:154.92px;font-family:Alata;-inkscape-font-specification:'Alata, Normal';fill:#001426;stroke-width:10;paint-order:markers stroke fill"
       aria-label="Tools" />
  </g>
</svg>
