<svg xmlns="http://www.w3.org/2000/svg" version="1.1" xmlns:xlink="http://www.w3.org/1999/xlink" xmlns:svgjs="http://svgjs.dev/svgjs" viewBox="0 0 1422 800"><defs><linearGradient x1="50%" y1="0%" x2="50%" y2="100%" id="ssscribble-grad"><stop stop-color="#47a9ff" stop-opacity="1" offset="0%"></stop><stop stop-color="#f2699e" stop-opacity="1" offset="100%"></stop></linearGradient></defs><g fill="none" stroke-width="1.25" stroke="url(#ssscribble-grad)" stroke-linecap="round"><path d="M1381.9 181.38C1119.05 214.72 895.95 289.16 816.77 408.58 909.78 533.85 1116.3 700.15 1332.59 872.14 1478.57 977.57 1490.8 983.54 1380.06 839.36 1184.11 616.77 970.94 408.63 796.21 391.1 680.75 624.67 641.59 982.02 659.94 1168.36 725.48 999.11 804.34 630.14 872.96 482.23 943.49 767.31 987.01 1169.52 1002.13 1165.45 1013.28 756.9 1001.22 515.93 967.88 822.31 934.53 1221.56 881.48 1108.49 807.44 669.52 729.44 512.41 625.26 826.3 496.95 1168.11 370.54 1124.35 236.77 750.59 119.84 455.98 50.1 494.4 41.38 783.72 113.15 1036.38 244.17 1077.76 417.81 887.3 579.04 616.18 655.06 370.01 612.92 252.07 442.5 243.25 201.77 315.17 -23.72 404.29 -129.6 465.09 -63.29 528.02 153.05 543.77 415.9 510.42 580.21 477.1 565.94 396.25 395.39 270.45 150.99 146.78 -41.3 -3 -102.04 -132.73 -16.23 -181.73 178.34 -118.74 402.88 76.01 598.11 295.75 707.2 438.39 723.98 353.36 658.79 57.03 549.85 -271.84 436.78 -345.05 324.32 -85.21 248.87 258.66 213.14 278.06 200.13 -88.13 215.61 -421.05 246.21 -276.93 284.31 149.16 323.33 255.61 356.68 -143.54 390.02 -450.05 416.12 -202.44 440.9 219.01 473.18 236.06 518.35 -147.14 589.14 -407.84 682.64 -235.54 813 163.33 976.84 367.34 1141.3 215.74 1298.13 -102.07 1407.03 -291.96 1433.98 -230.73 1364.44 25.26 1203.95 299.25 1014.13 494.83 849.44 543.77 788.04 496.12 873.2 381.92 1084.45 276.27 1341.72 213.89 1525.16 157.35 1546.24 148.02 1381.97 181.37Q1381.9 181.38 1381.9 181.38" opacity="0.66"></path><path d="M1347.4 649.19C1103.72 680.15 886.32 742.31 784.15 819.73 830.81 878.43 994.23 912.68 1198.05 881.79 1376.4 788.67 1459.22 618.99 1431.74 423.31 1308.45 318.95 1129.65 369.5 944.83 613.79 776.66 922.5 659.82 1119.38 596.64 1028.38 579.82 720.95 597.02 458.5 627.48 533.08 674.27 900.51 711.58 1191.16 729.53 1059 748.75 659.85 744.16 485.6 713.2 787.81 682.24 1171.8 626.37 1124.14 548.76 727.72 472.42 467.06 378.77 635.73 278.33 1000.62 194.21 1169.65 126.02 969.09 95.12 615.15 110.58 393.49 182.97 458.98 310.56 700.01 454.8 951.71 596.89 1041.67 687.93 959.91 683.18 754.01 572.59 527.33 371.54 349.94 145.02 218.05 -36.01 153.72 -94.61 125.54 -4.39 118.1 206.72 107.23 450.4 76.27 608.58 45.31 614.38 -4.26 478.5 -55.22 258.55 -85.45 55.69 -77.46 -54.14 0.74 -42.56 124.46 84.46 300.15 275.05 458.36 483.23 492.44 649.84 358.08 748.45 65.82 776.18 -215.82 742.54 -318.08 675.39 -128.7 580.92 192.98 494.03 365.84 429.61 174.19 371.95 -213.39 342.6 -399.77 338.09 -151.14 338.55 233.34 355.85 274.87 386.81 -109.04 417.77 -411.37 460.92 -230.96 518.85 180.15 581.75 324.36 667.41 51.37 778.73 -293.38 896.8 -345.32 1034.68 -55.13 1176.87 284.54 1291.76 407.82 1369.87 247.67 1382.74 -20.46 1324.73 -224.18 1194.84 -230.28 1018.9 -78.21 860.54 165.19 761.26 385.86 772.35 532.63 904.86 617.18 1125.33 639.26 1357.24 638.95 1505.08 619.92 1505.6 618.22 1347.47 649.18Q1347.4 649.19 1347.4 649.19" opacity="0.91"></path><path d="M1313.95 712.98C1089.75 741.56 880.55 745.02 760.56 715.04 764.51 673.82 880.21 585.87 1055.82 457.99 1242.26 347.93 1373.47 264.3 1420.15 273.84 1380.93 406.34 1268.75 652.49 1118.44 927.15 948.55 1076.19 795.94 1012.04 676.84 743.01 586.52 474.07 532.98 414.45 505.43 662.66 497.66 1018.09 497.96 1164.75 494.9 935.56 496.33 569.24 484.99 458.4 456.41 753.16 427.83 1118.97 383.36 1129.76 328.03 794.32 277.19 470.59 224.9 483.43 183.14 780.25 161.15 1078.03 167.62 1102.65 213.9 862.92 288.95 536.08 400.53 350.7 532.96 378.57 645.81 574.6 724.1 798.22 733.56 940.94 657.12 977.19 500.28 901.99 292.89 773.31 96.33 607.89 -35.63 462.77 -50.6 357.12 58.34 257.58 261.75 195.21 485.95 166.63 636.45 138.05 658.73 144.61 555.79 190.25 365.7 241.99 166.22 335.13 24.19 451.01 -27.66 530.17 26.59 558.3 159.82 478 341.87 291.23 524 26.58 672.11 -206.9 776.88 -272.22 825.44 -120.74 829.55 176.33 795.73 386.31 745.29 336.06 696.11 17.33 639.04 -300.44 598.85 -329.54 580.83 -16.84 563.51 307.56 568.67 290.98 597.25 -74.82 625.83 -369.58 676.48 -252.94 747.7 124.39 819.63 364.61 911.8 234.21 1018.4 -100.25 1117.12 -327.51 1214.62 -242.26 1292.49 56.42 1332.44 355.22 1324.9 453.25 1257.59 341.67 1146.94 104.47 998.7 -100.64 846.41 -189.08 742.94 -154.58 714.31 -23.88 787.13 135.7 950.1 313.11 1165.85 453.05 1366.97 548.17 1480.94 632.05 1464.45 684.4 1313.95 712.98Q1313.95 712.98 1313.95 712.98" opacity="0.84"></path><path d="M1278.4 269.57C1073.46 295.77 875.6 285.61 744.86 247.75 713.43 219.22 782.16 186.01 919.11 179.76 1091.32 227.12 1243.76 345.93 1342.61 543.84 1378.73 761.6 1344.24 956.81 1257.22 1034.64 1130.24 946.4 990.76 714.18 859.48 458.01 734.01 360.34 633.78 503.21 559.05 825.96 497.91 1090.01 454.75 1089.81 422.48 802.42 394.82 487.48 369.54 434.72 343.34 718.81 317.14 1063.67 291.26 1124.42 269.51 862.07 252.37 518.5 247.88 394.04 263.61 560.48 292.94 872.49 350.02 1075.28 435.11 1043.15 526.01 808.19 627.88 523.19 720.53 333.42 773.21 295.49 776.63 398.11 713.23 559.2 587.1 735.67 411.17 851.93 219.75 897.52 63.6 892.15 -20.03 844.73 1.28 786.54 121.91 715.71 314.46 661.47 519.4 635.27 662.43 609.07 699.69 612.16 628.85 633.57 472.88 642.36 288.54 642.12 130.78 602.09 30.46 511.09 16.16 351.69 80.43 134.84 207.22 -66.62 364.85 -206.85 521.53 -203.27 666.86 -47.85 776.39 206.07 847.54 413.76 886.91 418.64 898.09 192.38 894.23 -138.81 875.35 -324.5 857.72 -215.02 850.38 118.39 840.32 370.69 846.69 304.76 872.89 -40.04 899.08 -324.23 943.86 -266.28 1003.33 58.74 1060.08 356.29 1125.37 371.48 1189.65 126.66 1238.93 -176.89 1270.9 -296.31 1271.92 -171.39 1241.15 112.05 1169.25 375.34 1058.26 497.94 935.93 454.46 809.35 296.86 709.83 119.48 672.82 -38.05 710.59 -113.72 830.1 -115.68 1007.05 -64.02 1206.3 16.83 1372.39 94.78 1453.37 182.04 1421.46 243.36 1278.47 269.56Q1278.4 269.57 1278.4 269.57" opacity="0.58"></path><path d="M1243.9 37.39C1058.44 61.21 873.9 92.21 737.52 138.46 677.11 195.87 701.42 286.87 793.69 420.35 934.56 567.57 1082.97 738.43 1207.57 893.84 1297.63 976.71 1332.99 960.08 1317.46 820 1258.76 613.49 1169.66 407.29 1067.85 318.21 953.67 418.66 847.12 679.96 755.99 967.67 668.21 1094.61 598.33 971.44 545.76 666.74 495.63 415.77 458.93 414.03 435.11 684.31 411.29 1005.64 401.49 1106.65 406.7 922.77 414.36 599.53 440.91 378.7 487.41 393.8 537.27 617.49 604.6 885.37 682.07 1037.21 747.17 1008.13 802.07 821.83 829.56 582.54 813.87 366.41 750.28 251.64 635.41 239.42 486.01 312.38 316.24 423.34 157.91 528.21 48.19 633.82 10.32 700.91 61.53 730.31 188.73 750.92 368.44 746.26 553.9 722.44 687.95 698.63 736.39 656.78 694.14 591.25 573.55 516.94 413.82 406.52 257.11 259.64 128.51 113.49 60.72 -36.68 59.14 -146.36 117.57 -170.85 222.05 -90.27 349.14 94.62 490.27 302.69 620.55 460.76 728.92 465.06 821.39 288.45 887.77 -0.77 932.9 -241.93 964.68 -274.55 985.49 -67.33 1002.64 246.7 1016.03 421.46 1033.04 315.73 1056.85 -5.54 1080.67 -275.91 1110.16 -269.45 1141.69 -9.33 1169.46 304.58 1191.98 441.37 1201.49 331.93 1197.63 61.69 1170.49 -178.27 1114.74 -253.94 1043.08 -140.08 947 94.34 837.08 332.07 741.2 503.38 664.95 554.22 631.3 508.06 657.66 389.36 746.8 257.72 892.84 151.77 1067 59.56 1240.29 11.89 1370.09 -0.59 1421.56 -1.93 1377.98 13.57 1243.97 37.38Q1243.9 37.39 1243.9 37.39" opacity="0.93"></path><path d="M1210.17 392.78C1044.3 414.22 874.98 467.1 738.17 547.45 656.32 625.47 641.88 722.68 688.6 821.52 787.13 890.9 910.42 923.65 1033.58 890.8 1148.07 795.75 1229.84 636.63 1273.42 450.51 1283.85 316.34 1260.02 279.48 1212.55 386.66 1145.02 607.78 1069.71 867.4 996.47 1038.87 918.22 1024.35 850.09 821.13 796.26 536.46 742.24 355.51 703.58 396.22 682.14 649.7 660.71 945.14 657.51 1075.89 671.11 969.12 684.51 698.32 713.65 433.91 754.75 318.33 790.84 396.53 830.85 607.94 865.35 832.29 879.77 983.01 872.83 994.09 834.3 885.49 762.63 695.08 655.45 494.66 518.64 334.04 373.15 220.34 230.64 171.5 116.4 167.36 53.97 197.82 56.21 237.32 129.79 265.63 258.32 299.31 423.3 308.34 589.17 286.91 713.04 265.47 769.14 214.58 751.45 140.47 665.38 71.74 536.35 -6.74 394.54 -74.35 257.83 -107.36 156.96 -93.82 103.76 -13.17 97.16 114.4 137.42 284.05 211.17 446.37 312 526.88 422.28 490.4 528.84 317.38 635.92 70.72 727.75 -159.91 801.83 -253.86 869.46 -154.04 921.66 98.13 961.01 360.67 997.73 459.24 1026.22 324.24 1047.65 28.84 1069.09 -224.7 1082.46 -261.16 1086.17 -72 1087.24 220.94 1074.04 436.4 1043.55 466.68 1006.62 310.96 950.09 70.56 876.05 -128.25 802.52 -213.13 723.02 -150.87 650.28 11.38 604.63 225.6 589.78 415.5 618.7 543.58 694.23 609.48 814.32 612.04 966.74 579.8 1124.26 518.1 1265.49 459.89 1359.83 422.29 1385.8 382.37 1334.04 371.35 1210.17 392.78Q1210.17 392.78 1210.17 392.78" opacity="0.35"></path><path d="M1174.9 759.9C1028.3 778.96 875.99 802.41 744.26 823.58 649.84 836.81 605.66 832.92 611.71 798.71 664.82 741.92 749.78 645.64 849.43 515.89 958.62 392.12 1055.81 282.65 1131.62 229.72 1190.18 266.08 1221.35 398.47 1228.47 608.61 1218.01 825.54 1191.69 984.69 1156.94 1010.91 1114.05 887.18 1071.02 654.82 1033.24 419.28 993.69 307.94 963.08 381.48 944.03 615.31 924.97 882.73 918.37 1032.36 921.99 995.33 923.84 797.55 932.2 542.13 942.07 346.61 943.8 280.49 938.74 359.07 919.83 528.53 883.35 731.62 824.83 886.12 741.29 954.84 640.51 935.68 520.73 841.19 391.7 709.66 272.21 553.98 170.17 414.23 103.08 305.13 83.07 211.71 116.41 149.33 203.48 109.37 327.85 76.88 476.3 53.75 622.9 34.7 736.32 15.64 797.73 1.56 801.18 -1.87 747.9 2.15 652.95 29.86 536.36 90.26 409.16 166.34 296.65 274.72 212.17 401.02 156.17 503.19 137.86 570.33 152.56 564.51 195.05 470.82 257.94 293.73 330.65 70.8 414.3 -118.49 495.61 -214.15 568.31 -162 641.86 19.54 703.19 264.12 750.49 454.54 797.15 484.23 830.5 330.73 849.55 63.31 868.62 -170.51 872.48 -240.19 861.76 -121.5 850.4 121.39 823.74 364.59 783.22 502.29 743.54 490.02 693.6 347.97 639.31 150.88 578.19 -94.32 573.6 -14.29 669.87 207.26 774.19 366.37 903.78 494.03 1044.94 583.84 1175.5 651.06 1281.3 689.62 1341.95 712.32 1345.88 727.09 1288.36 740.84 1174.97 759.89Q1174.9 759.9 1174.9 759.9" opacity="0.42"></path><path d="M1140.4 543.6C877.56 576.94 654.99 513.01 565.57 364.95 622.7 247.12 771.11 180.96 924.81 330.04 1068.56 651.62 1142.72 953.53 1156.19 882.38 1143.92 501.1 1109.76 274.43 1076.42 580.81 1043.07 980.06 1013.7 872.6 968.19 461.49 896.93 242.56 770.74 418.71 583.28 707.89 385.88 898.81 202.1 862.91 120.53 728.11 185.5 538.48 394.56 407.76 657.4 374.42 821.71 341.07 813.46 408.26 670.28 540.11 454.69 617.12 280.31 600.98 198.71 366.36 196.06 33.47 264.6 -178.03 352.4 16.44 459.59 403.11 540.94 497.06 574.28 97.81 607.64 -208.56 589.84 31.62 540.43 437.34 510.41 532.92 493.9 266.38 540.22 -11.49 665.51 -116.87 875.25 1.32 1115.28 176.94 1282.92 382.79 1304.73 510.25 1140.47 543.59Q1140.4 543.6 1140.4 543.6" opacity="0.61"></path><path d="M1105.9 94.55C881.54 123.13 673.93 111.39 551.97 113.21 533.29 178.58 601.81 355.59 705.69 641.94 835.47 877.1 934.97 928.01 987.36 680.69 1029.19 352.08 1032.92 251.55 1004.34 546.31 975.75 912.13 917.58 924.86 826.21 621.67 724.29 290.52 580.19 206.6 412.95 340.43 271.61 584.55 172.78 759.27 170.5 820.89 271.51 823.65 467.54 784.17 691.9 755.59 842.98 727.01 870.06 712.03 788.09 659.74 627.03 548.59 461.7 329.26 342.78 47.69 252.37 -96.79 324.99 510.29 375.51 132.31 404.09 -162.45 414.69 -50.33 424.28 299.22 453.68 567.49 517 546.9 635.49 349.19 791.86 100.3 987.51 -32.09 1169.53 -47.94 1272.46 -0.22 1257.01 65.96 1105.97 94.54Q1105.9 94.55 1105.9 94.55" opacity="0.90"></path><path d="M1071.47 140.53C886.01 164.35 703.08 241.94 569.32 379.59 497.69 527.8 492.65 718.45 530.01 869.84 603.46 889.97 676.19 737.88 724.74 453.6 775.29 237.1 791.85 241.53 768.04 511.8 744.22 833.13 682.28 932.84 590.45 773.18 500.63 475.63 390.72 238.78 286.06 153.96 217.48 207.99 197.26 330.94 251.43 433.66 367.74 540.41 541.01 584.25 726.47 560.43 860.48 536.62 911.32 447.4 882.23 299.37 784.91 155.38 661.54 -4.73 550.44 -89.98 443.94 -36.38 377.1 175.2 349.61 455.3 333.16 597.49 340.61 488.13 364.42 166.8 388.24 -103.46 426.17 -98.23 483.89 135.71 552.66 437.46 656.67 614.81 794.39 625.9 936.71 505.72 1085.34 352.24 1200.12 245.3 1246.67 148.93 1205.48 116.71 1071.47 140.53Q1071.47 140.53 1071.47 140.53" opacity="0.99"></path><path d="M1036.97 607.02C890.37 626.07 739.65 688.57 613.22 769.44 516.72 825.83 461.6 849.27 441.27 791.95 449.04 662.71 470.14 458.99 487.75 256.23 512.02 167.39 518.92 243.48 499.87 477.3 480.81 744.72 437.61 890.85 380.32 864.31 329.68 695.98 278.85 474.56 246.11 290.98 241.47 157.87 276.38 103.14 358.91 93.65 471.37 112.06 614.37 124.3 760.97 105.24 905.64 61.92 875.59 -24.8 769.18 95.82 684.37 254.43 616.87 455.64 576.91 610 538.87 622.57 528.18 468.72 547.23 201.3 566.28 -32.51 613.29 -100.88 684.34 1.92 757.32 218.65 854.56 442.57 964.34 596.79 1105.83 682.23 1177.78 601.06 1036.97 607.02Q1036.97 607.02 1036.97 607.02" opacity="0.12"></path><path d="M1002.4 737.97C778.04 766.55 573.17 691.71 457.83 455.33 398.21 228.51 378.43 148.05 349.85 442.81 321.26 808.65 289.29 824.55 311.45 609.58 389.34 321.57 571.04 156.34 795.4 127.76 946.49 99.17 981.44 212.65 943.28 463.21 852.97 640.72 793.16 601.65 821.75 235.81 850.33 -58.94 961.89 44.67 1089.66 308.96 1165.27 582.8 1153.49 709.39 1002.4 737.97Q1002.4 737.97 1002.4 737.97" opacity="0.75"></path><path d="M967.97 321.14C667.46 359.25 439.99 103.58 401.89 408.3 363.78 828.74 529.46 629.58 829.97 591.47 1003.51 553.37 996.07 690.74 1034.18 270.3 1072.28 -34.41 1141.51 283.04 967.97 321.14Q967.97 321.14 967.97 321.14" opacity="0.55"></path></g></svg>